<?xml version="1.0" encoding="UTF-8"?><svg xmlns="http://www.w3.org/2000/svg" viewBox="0 0 2400 1200"><rect width="2400" height="1200" fill="#fff"/><g id="Layer_1"><rect width="2400" height="1200" fill="#191e2b"/><g id="g6"><path id="path8" d="M208.571,728.518c-4.734,0-8.571-3.846-8.571-8.577v-240.005c0-4.744,3.837-8.577,8.571-8.577h240.011c4.737,0,8.571,3.837,8.571,8.577v34.278c0,4.744-3.837,8.565-8.571,8.565h-171.435c-4.731,0-8.571,3.849-8.571,8.577v34.291c0,4.731,3.843,8.565,8.571,8.565h154.293c4.737,0,8.571,3.837,8.571,8.565v34.291c0,4.744-3.837,8.577-8.571,8.577h-154.293c-4.731,0-8.571,3.837-8.571,8.577v85.711c0,4.731-3.837,8.577-8.571,8.577-.003.006-46.696.006-51.433.006h0Z" fill="#46b93a"/><path id="path10" d="M1951.418,470.769c-4.731,0-8.565,3.837-8.565,8.565v240.017c0,4.731,3.837,8.565,8.565,8.565h240.017c4.731,0,8.565-3.837,8.565-8.565v-34.291c0-4.731-3.837-8.577-8.565-8.577h-171.439c-4.744,0-8.577-3.837-8.577-8.565s-.207-189.478-.207-189.478c0,0,.587-7.646-8.37-7.671h-51.424Z" fill="#46b93a"/><path id="path12" d="M474.302,479.937c0-4.744,3.837-8.577,8.571-8.577h257.15c4.737,0,8.571,3.837,8.571,8.577v34.278c0,4.744-3.837,8.565-8.571,8.565h-188.575c-4.737,0-8.577,3.849-8.577,8.577v34.291c0,4.731,3.843,8.565,8.577,8.565h171.432c4.737,0,8.571,3.837,8.571,8.565v34.291c0,4.744-3.837,8.577-8.571,8.577h-171.432c-4.737,0-8.577,3.837-8.577,8.577v34.278c0,4.744,3.843,8.565,8.577,8.565h188.575c4.737,0,8.571,3.85,8.571,8.577v34.291c0,4.731-3.837,8.577-8.571,8.577h-257.15c-4.737,0-8.571-3.849-8.571-8.577,0,.006,0-235.267,0-239.998h0Z" fill="#46b93a"/><path id="path14" d="M765.739,574.216c0,28.408,23.028,51.436,51.43,51.436h137.148c9.475,0,17.145,7.671,17.145,17.145v17.145c0,9.462-7.671,17.133-17.145,17.133h-111.431c-4.737,0-8.571-3.824-8.571-8.555s-3.837-8.577-8.571-8.577h-51.43c-4.737,0-8.571,3.837-8.571,8.565v8.565c0,28.408,23.028,51.446,51.43,51.446h171.439c28.408,0,51.436-23.04,51.436-51.446v-51.424c0-28.408-23.028-51.436-51.436-51.436h-137.148c-9.468,0-17.145-7.671-17.145-17.145v-17.133c0-9.475,7.677-17.158,17.145-17.158h111.437c4.731,0,8.565,3.849,8.565,8.577s3.837,8.577,8.577,8.577h51.424c4.731,0,8.577-3.849,8.577-8.577v-8.577c0-28.396-23.028-51.424-51.436-51.424h-171.439c-28.402,0-51.43,23.028-51.43,51.424v51.439h0Z" fill="#46b93a"/><path id="path16" d="M1057.174,479.937c0-4.744,3.85-8.577,8.577-8.577h257.162c4.731,0,8.565,3.837,8.565,8.577v34.278c0,4.744-3.837,8.565-8.565,8.565h-85.724c-4.731,0-8.577,3.849-8.577,8.577v188.581c0,4.731-3.824,8.577-8.565,8.577h-51.424c-4.744,0-8.577-3.849-8.577-8.577v-188.578c0-4.731-3.837-8.577-8.577-8.577h-85.711c-4.731,0-8.577-3.824-8.577-8.565v-34.281h-.006Z" fill="#46b93a"/><path id="path18" d="M1400.06,728.518c-28.408,0-51.446-23.04-51.446-51.446v-154.293c0-28.396,23.04-51.424,51.446-51.424h171.439c28.396,0,51.424,23.028,51.424,51.424v154.293c0,28.408-23.028,51.446-51.424,51.446h-171.439ZM1434.339,677.073h102.857c9.475,0,17.158-7.671,17.158-17.133v-120.002c0-9.475-7.683-17.158-17.158-17.158h-102.857c-9.462,0-17.145,7.683-17.145,17.158v120.002c0,9.462,7.683,17.133,17.145,17.133h0Z" fill="#46b93a"/><path id="path20" d="M1697.933,729.231c-28.421,0-51.436-23.015-51.436-51.424v-154.293c0-28.408,23.015-51.436,51.436-51.436h171.426c28.408,0,51.436,23.028,51.436,51.436v154.293c0,28.408-23.028,51.424-51.436,51.424h-171.426ZM1732.211,677.807h102.857c9.475,0,17.145-7.671,17.145-17.158v-120.002c0-9.462-7.671-17.133-17.145-17.133h-102.857c-9.475,0-17.145,7.671-17.145,17.133v120.002c0,9.487,7.671,17.158,17.145,17.158h0Z" fill="#46b93a"/></g></g></svg>