<?xml version="1.0" encoding="UTF-8"?>
<svg id="Layer_1" xmlns="http://www.w3.org/2000/svg" version="1.1" viewBox="0 0 2400 1200">
  <!-- Generator: Adobe Illustrator 30.1.0, SVG Export Plug-In . SVG Version: 2.1.1 Build 136)  -->
  <defs>
    <style>
      .st0 {
        fill: #232122;
      }

      .st1 {
        fill: #727273;
      }

      .st2 {
        fill: #fff;
      }

      .st3 {
        fill: #737273;
      }

      .st4 {
        fill: #232021;
      }

      .st5 {
        fill: #717171;
      }

      .st6 {
        fill: #747474;
      }

      .st7 {
        fill: #a0cf68;
      }

      .st8 {
        fill: #1383c6;
      }

      .st9 {
        fill: #0f84c6;
      }

      .st10 {
        fill: #0e82c6;
      }

      .st11 {
        fill: #4c4e50;
      }

      .st12 {
        fill: #787878;
      }

      .st13 {
        fill: #f2f0f1;
      }
    </style>
  </defs>
  <rect class="st2" x="0" y="0" width="2400" height="1200"/>
  <g>
    <path class="st4" d="M406.22,681.2l-22.74.11c-4.84.02-9.53-5.32-9.52-10.35l.11-52.24c.01-5.49-4.52-10.42-10.31-10.43l-113.44-.05c-4.33.72-9.37,4.95-9.37,9.26l-.02,53.39c0,5.64-4.89,10.51-10.42,10.48l-20.96-.12c-5.18-.03-9.55-4.98-9.55-10.56v-162.56c.61-4.8,4.85-9.11,9.15-9.14l21.87-.15c4.07-.03,9.87,4.34,9.87,8.94l.09,55.71c0,5.28,5.14,9.66,10.49,9.66l113.06-.03c4.7,0,9.47-4.89,9.47-9.26l.02-56.08c0-3.89,5.54-8.85,9.03-8.86l21.92-.07c4.77-.01,10.1,4.49,10.1,10.02v161.86c.01,4.97-4.52,10.44-8.86,10.46h0Z"/>
    <path class="st5" d="M1528.59,748.37c-2.29.08.05-20.37-2.63-25.16l-24.02-.55-.48,24.5c-.42,1.75-6.87,1.75-9.16.56l.05-41.85c.03-1.96,8.03-3.48,8.29-1.64l1.39,9.97,23.16.74c5.8.18,11.65,4.91,11.62,10.85l-.11,22.3-8.1.28h0Z"/>
    <path class="st1" d="M1723.1,730.8l19.37,17.03c-1.99.7-9.5,1.73-11.92-.15l-17.72-13.77-1.58,14.06c-.67,1.45-8.67.67-8.67-1.33v-41.05c.06-2.27,8.74-2.31,8.85,0l1.12,23.6,17.88-13.4c2.25-1.69,9.44-1.18,12.81-.76l-20.15,15.75h0Z"/>
    <path class="st3" d="M1607.92,725.37c-5.22-4.21-16.44-3.53-23.34-.98l-1.34,16.95c-.24,3.1-.46,5.33-.83,6.84-.47,1.89-8.25.6-8.26-1.32l-.07-21.03c-.05-14.66,23.21-11.25,34.64-10.85,3.52.12,9.2,6.32,9.18,9.53l-.11,23.26c-1.19,1.35-8.45,1.24-8.58-.88l-1.3-21.53h0Z"/>
    <path class="st1" d="M1426.19,739.6c8.07,1.26,20.95,1.41,27.71,1.77,1.72.09,1.57,7.3-.12,7.31l-26.15.14c-3.35.02-8.81-1.96-10.48-4.07-4.07-5.15-3.63-18.23-1.02-24.79,1.14-2.87,7.37-5.29,11.37-5.28l26.06.07c1.47,0,1.47,7.38.04,7.46l-26.87,1.36c-4.03.2-4.49,15.31-.55,16.04h0Z"/>
    <path class="st5" d="M1288.16,746.64c-.06,2.6-8.8,2.89-8.88.44l-.71-22.15c-.05-1.51-5-4.49-4.38-5.85l3.39-7.39,2.7-5.91c.65-1.43,6.48-1.98,6.84-.45l1.74,7.47c.47,2,6.38,1.87,8.68,2.04,1.52.12,2.83,6.18,1.27,6.4l-10.07,1.39-.57,24.01h0Z"/>
    <rect class="st6" x="1655.34" y="715.52" width="9.67" height="33.32" transform="translate(-.88 2) rotate(-.07)"/>
    <circle class="st12" cx="1660.17" cy="708.1" r="5"/>
    <path class="st1" d="M1347.46,741.33l28.4.29c1.98.02,2.03,7.09.2,7.09l-30.4.05c-9.31.02-12.55-7.36-12.46-14.97.06-4.48.18-15.45,4.38-16.79,11.94-3.83,24.87-3.36,37.07-.57,3.65,3.57,3.85,13.12,2.39,18.63l-30.95.21c-.84,0-3.97,2.74-3.39,3.29.87.84,3.42,2.75,4.76,2.76h0Z"/>
    <path class="st13" d="M1365.98,729.04h-20.56c-1.1-.01-3.3-3.45-2.54-4.17s3.45-2.75,4.5-2.75l16.89-.1c1.17,0,3.87,2.05,4.35,3.02s-1.55,4.01-2.64,4.01h0Z"/>
    <path class="st10" d="M623.45,630.93c9.22,0,11.48-7.23,11.95-13.69l.67-9.21,47.66.02c.14,10.75.83,21.67-.15,31.95-2.48,26.03-25,41.2-49.46,41.15l-111.15-.22c-24.34-.05-46.89-18.02-48.36-43.84-1.73-30.27-.9-59.71-.57-90.89.25-23.2,19.2-45.45,43.48-45.53l124.07-.39-44.18,49.53-62.79.16c-5.61.01-10.23,6.38-10.21,11.53l.21,59.77c.02,5.29,4.25,9.68,9.91,9.67h88.94s0-.01,0-.01Z"/>
    <polygon class="st8" points="685.34 594.05 634.53 594.09 634.19 558.25 611.82 556.4 662.54 499.62 707.65 556.67 685.27 558 685.34 594.05"/>
    <circle class="st8" cx="617.39" cy="464.63" r="19.54"/>
    <circle class="st9" cx="549.77" cy="464.58" r="19.49"/>
    <path class="st4" d="M1065.4,606.38c-8.55.02-8.05,12.23-7.82,16.87.68,13.46,7.95,23.21,22.04,23.22l122.8.15c3.17,0,10.05,3.07,10.11,5.59l.53,22.5c.07,2.79-5.96,7.28-9.15,7.27l-126.31-.24c-12.61-.02-25.75-1.74-36.95-6.98-14.36-6.72-22.8-22.98-23.45-39.08-1.22-29.96-1.05-59-.16-89.1.92-31.18,23.12-47.44,53.44-47.51l133.39-.3c4.68-.01,9.26,4.9,9.26,8.87v18.11c0,3.01-4.85,8.28-8.48,8.28l-125.03.07c-14.15,0-21.59,10.01-22.07,23.96-.14,4.05.52,14.86,6.88,14.87l139.45.24c3.62,0,9.23,4.19,9.19,7.17l-.24,19.57c-.03,2.64-6.07,6.17-8.94,6.18l-138.48.28h0Z"/>
    <path class="st4" d="M905.56,607.12c-17.61-1.53-54.31,1.73-54.57-6.14l-.72-21.74c1.26-1.81,5.53-6.09,7.75-6.09h94.85c.18,21.6.41,41.55-.45,62.08-1.11,26.57-20.09,44.78-46.66,45.75-39.67,1.46-78.74,1.55-118.57-.22-25.77-1.14-44.46-19.24-45.42-45.26-1.09-29.67-.88-58.94-.24-89.09.65-30.53,23.14-47.22,53.13-47.32l108.87-.37c3.93-.01,8.59,5.55,8.57,8.7l-.15,18.66c-.02,3.01-5.11,8-8.87,8h-98.96c-11.15,0-21.1,7.48-21.5,19.83-.79,24.16-.79,48.65-.05,72.88.36,12,10.49,19.73,21.59,19.72l86.04-.06c13.01,0,20.85-9.45,21.4-21.73.21-4.59,1.31-16.98-6.04-17.61h0Z"/>
    <path class="st4" d="M1425.28,675.08l-101.56-69.87c-1.14-.78-4.78-1.39-5.47-.57s-2.04,3.87-2.04,4.95l.02,60.91c0,6.67-4.76,10.96-10.87,10.9l-20.82-.2c-5.05-.05-9.41-5.2-9.41-10.6v-160.48c.01-6.52,4.45-11.25,11-11.25l137.59.07c10.82,0,22.56,1.49,32.07,3.21,26.29,4.77,35.29,26,35.65,49.9.41,26.93-12.21,50.43-41.44,52.04l-58.8,3.25,102.54,72.56c-18.8,2.2-33.55,1.62-51.12,1.59-4.86,0-11.75-2.57-17.34-6.41h0Z"/>
    <path class="st2" d="M1432.95,572.51l-106.88.73c-5,.03-9.82-4.64-9.83-9.23l-.06-21.89c-.01-4.88,4.47-10.09,9.96-10.07l104.96.53c12.29.06,19.5,8.43,19.62,19.51.11,9.72-4.94,20.32-17.78,20.41h0Z"/>
    <path class="st0" d="M1659.06,669.77c0,5.83-3.91,11.31-8.64,11.37l-22.01.27c-5.5.07-10.46-4.81-10.46-10.7l.04-127.84c0-5.91-4.62-10.79-10.51-10.79h-62.87c-3.56,0-8.43-5.01-8.42-8.33l.04-16.27c0-3.72,3.72-7.55,8.2-8.54h186.79c3.95.01,9.14,4.65,9.12,7.88l-.09,17.87c-.01,2.72-5.06,6.6-7.97,7.4l-64.12.03c-3.76,0-9.12,4.59-9.12,8.66v128.99s.01,0,.01,0Z"/>
    <path class="st10" d="M2037.77,582.93l-1.3,3.82-75.4-.09c-9.49,1.2-15.6,7.72-16.93,17.07l-.05,74.61-3.82,2.26-134.17-.22c-14.84-.02-26.47-14.72-26.47-28.88l.03-200.71c0-15.49,13.04-28.55,28.41-28.54l202.7.03c12.57,0,26.68,11.21,26.71,24.41l.28,136.24h0Z"/>
    <path class="st2" d="M2037.77,582.93l.57,66.72c.14,16.85-12.24,30.82-29.45,30.85l-68.62.12-.03-75.05c0-12.54,10.18-22.83,22.65-22.81l74.88.17h0Z"/>
    <path class="st2" d="M2135.12,649.39l-49.87.18c-9.07.02-16.28-5.93-16.4-15.18l-.62-49.68c.33-.3,4.49-2.08,5.99-2.06l41.13.54c10.65.14,19.69,10.38,19.7,20.23l.07,45.98h0Z"/>
    <path class="st11" d="M2068.15,582.71c1.69.5,1.7,1.16.09,1.99l3.85,2.15.62,48.26c1.31,7.43,4.58,9.49,11.74,10.61l47.9-.15,2.78,3.81.14,105.37c.02,13.5-9.87,22.98-23.18,22.98l-149.18-.03c-11.79,0-22.46-8.89-22.49-21.18l-.14-75.92,2.23-3.83,69.79-.33c12.64-1.83,20.35-11.02,22.07-23.38l-.38-67.32,3.8-2.83,30.37-.21h0Z"/>
    <path class="st7" d="M2135.12,649.39l-3.83-1.67-.07-44.88c-1.72-9.36-5.59-13.1-14.54-15.75-15.14-.7-30.16-.62-45.05.24l-3.4-2.62-.09-1.99.19-47.4c.04-9.21,6.16-17.44,15.49-17.44l100.73-.04c8.69,0,15.47,6.75,15.45,15.14l-.18,105.39c-.01,5.98-9.52,11.38-14.72,11.35l-49.98-.32h0Z"/>
  </g>
</svg>