<svg xmlns="http://www.w3.org/2000/svg" viewBox="0 0 2400 1200">
  <rect x="0" y="0" width="2400" height="1200" fill="#ffffff"/>
  <g transform="translate(312.00 240.64) scale(1.20048)"><path d="M1434.775 0c23.224 0 42.526 18.398 42.526 42.225 0 24.433-19.304 42.831-42.526 42.831-23.226 0-42.829-18.398-42.829-42.831 0-23.827 19.302-42.225 42.829-42.225m0 78.72c19.605 0 34.986-15.685 34.986-36.496 0-20.509-15.381-36.194-34.986-36.194-19.906 0-35.288 15.686-35.288 36.194 0 20.813 15.382 36.496 35.288 36.496m-16.588-61.226h19.302c11.763 0 17.493 4.522 17.493 14.175 0 9.046-5.73 12.667-12.97 13.571l14.177 22.018h-8.445l-13.571-21.413h-8.145v21.413h-7.841zm7.538 22.318h8.146c6.937 0 12.97-.302 12.97-8.144 0-6.637-5.73-7.541-10.859-7.541h-10.255zM72.686 585.13c-6.937 9.65-18.396 13.572-28.955 13.572C16.888 598.702.6 576.684.6 553.159c0-26.24 14.479-49.162 43.131-49.162 19.908 0 35.593 8.746 38.91 30.16H70.576c-2.412-13.574-13.573-19.906-26.845-19.906-22.017 0-31.064 19.002-31.064 38.305 0 19 10.856 36.193 31.064 36.193 18.702 0 29.861-12.971 28.955-29.557H43.731v-10.256h39.513v47.654h-7.542zm68.468-79.324h62.435v10.258H153.22v28.953h47.051v10.254H153.22v31.369h50.671v10.254h-62.735zm117.327 0h42.526c16.892 0 27.447 9.35 27.447 23.828 0 10.857-4.825 19.904-15.685 22.922v.303c10.559 2.111 12.667 9.648 13.574 18.697.904 8.748.302 18.701 5.428 25.037H318.2c-3.316-3.621-1.509-13.574-3.316-22.32-1.206-8.748-3.319-16.285-15.082-16.285h-29.257v38.605h-12.063v-90.787zm37.099 41.623c11.159 0 20.812-3.016 20.812-15.984 0-8.748-4.827-15.381-15.984-15.381h-29.861v31.668h25.035zm89.882-41.623h16.587l28.353 76.008 28.653-76.008h16.588v90.484H464.18v-75.404h-.3l-28.353 75.404h-10.255l-28.351-75.404h-.302v75.404H385.16v-90.484zm174.332 0h13.271l35.29 90.484h-13.271l-9.953-27.146h-38.307l-10.256 27.146h-12.364zm-8.747 53.084h30.765l-15.082-42.227h-.3zm106.169-53.084h12.667l47.655 73.596h.302v-73.596h11.46v90.484h-13.271l-47.354-72.689h-.302v72.689h-11.46v-90.484zm168.904 53.387v37.098h-12.066v-37.098l-34.987-53.688h14.176l27.146 43.131 26.54-43.131h13.573zm227.415 25.937c-6.938 9.65-18.398 13.572-28.955 13.572-26.843 0-43.131-22.018-43.131-45.543 0-26.24 14.479-49.162 43.131-49.162 19.906 0 35.589 8.746 38.908 30.16h-12.063c-2.414-13.574-13.271-19.906-26.845-19.906-22.018 0-31.065 19.002-31.065 38.305 0 19 10.857 36.193 31.065 36.193 18.7 0 29.858-12.971 28.955-29.557h-28.955v-10.256h39.513v47.654h-7.542zm68.468-79.324h16.587l28.354 76.008 28.652-76.008h16.587v90.484h-11.461v-75.404h-.303l-28.351 75.404h-10.255l-28.353-75.404h-.302v75.404H1122zm150.203 0h32.875c7.841 0 18.398 0 23.827 3.316 6.032 3.621 10.557 9.955 10.557 19.002 0 9.654-5.126 16.893-13.57 20.209v.303c11.158 2.41 17.19 10.557 17.19 21.715 0 13.271-9.351 25.939-27.446 25.939h-43.734v-90.484zm12.063 38.908h24.13c13.57 0 19.302-4.826 19.302-14.477 0-12.668-8.746-14.479-19.302-14.479h-24.13zm0 41.32h30.162c10.254 0 16.891-6.332 16.891-16.287 0-11.762-9.353-15.08-19.606-15.08h-27.445zm114.614-80.228h12.065v38.908h47.655v-38.908h12.063v90.484h-12.063v-41.32h-47.655v41.623h-12.065z"/><path fill="#010202" d="M1260.139 223.193a71.57 71.57 0 0 0-71.782 71.784c0 39.813 32.271 71.786 71.782 71.786 39.514 0 71.783-32.273 71.783-71.786.002-39.812-32.269-71.784-71.783-71.784m-65.751 232.246h-142.06V215.353L942.541 455.439H787.209L716.03 283.216l-77.215 172.223H493.74L374 198.159l-56.402 52.784 97.42 204.496H246.416l-41.924-121.854-59.116 53.084v68.77H-.001V.3h143.565v236.77l104.058-92.596h258.483l69.371 156.233 66.355-156.233h155.333l69.671 155.33 65.752-155.33h119.741V.3h142.061v176.144c31.97-24.73 69.371-39.51 115.217-39.51 101.041 0 169.809 72.988 169.809 162.871 0 89.882-68.768 162.873-169.809 162.873-45.546 0-82.944-14.779-114.916-39.512z"/></g>
</svg>
